# xmcd
#
# Track frame offsets:
# 150
# 20683
# 41833
# 67598
# 87033
# 112243
# 131203
# 150803
# 170193
# 189795
# 213785
#
# Disc length: 3134 seconds
#
#
# Revision: 0
# Processed by: cddbd v1.5.2PL0 Copyright (c) Steve Scherf et al.
# Submitted via: FreeRIP 2.40 
#
DISCID=8b0c3c0b
DTITLE=Komatsu Miho - á³áæÚ±ÜÆ3rd~everywhere~
DYEAR=2000
DGENRE=JPop
TTITLE0=õÌÓ­Ëå×îªÇ
TTITLE1=BEAUTIFUL LIFE
TTITLE2=As
TTITLE3=ù¦ª¬ª½ªèª°íÞá¶
TTITLE4=sickness
TTITLE5=No time to tell
TTITLE6=Holding. Holding on
TTITLE7=BOY FRIEND
TTITLE8=ªµªèªÊªéªÎª«ª±ªé
TTITLE9=ÙÓªÈúÞãùªÎúõÊà
TTITLE10=éëª¬Ë½ªëÓøªË
EXTD=
EXTT0=
EXTT1=
EXTT2=
EXTT3=
EXTT4=
EXTT5=
EXTT6=
EXTT7=
EXTT8=
EXTT9=
EXTT10=
PLAYORDER=
